<?xml version="1.0" encoding="UTF-8"?>
<svg version="1.1" xmlns="http://www.w3.org/2000/svg" width="100" height="87">
<path d="M0 0 C3.63552263 4.31581693 3.4238504 8.52077173 3.36328125 13.87890625 C3.36377975 14.72799057 3.36427826 15.57707489 3.36479187 16.45188904 C3.36245784 18.24130604 3.352769 20.03072672 3.33618164 21.82006836 C3.31254942 24.55677661 3.3156307 27.2925122 3.32226562 30.02929688 C3.31668963 31.77083913 3.30958025 33.5123773 3.30078125 35.25390625 C3.30214836 36.47902672 3.30214836 36.47902672 3.30354309 37.72889709 C3.21328004 44.96705897 3.21328004 44.96705897 1 48 C-1.76617563 49.38308781 -4.01018 49.11210196 -7.1015625 49.09765625 C-8.91914062 49.09282227 -8.91914062 49.09282227 -10.7734375 49.08789062 C-12.04445313 49.07951172 -13.31546875 49.07113281 -14.625 49.0625 C-15.90375 49.05798828 -17.1825 49.05347656 -18.5 49.04882812 C-21.66671292 49.03701203 -24.83333356 49.02053815 -28 49 C-28.234375 43.359375 -28.234375 43.359375 -26.125 40.125 C-25.42375 39.42375 -24.7225 38.7225 -24 38 C-23.34 38 -22.68 38 -22 38 C-22.99 34.535 -22.99 34.535 -24 31 C-23.484375 30.67 -22.96875 30.34 -22.4375 30 C-20.67842746 27.55259472 -20.94392612 26.89511346 -21.375 24 C-21.50648437 23.319375 -21.63796875 22.63875 -21.7734375 21.9375 C-22 20 -22 20 -21 17 C-19.72125 16.938125 -18.4425 16.87625 -17.125 16.8125 C-16.04605469 16.76029297 -16.04605469 16.76029297 -14.9453125 16.70703125 C-14.30335937 16.80371094 -13.66140625 16.90039062 -13 17 C-10.8120358 20.28194629 -10.81123797 21.22475937 -11 25 C-11 25.99 -11 26.98 -11 28 C-10.34 28.33 -9.68 28.66 -9 29 C-9.01571045 28.22809326 -9.0314209 27.45618652 -9.04760742 26.66088867 C-9.10989607 23.16983338 -9.14897173 19.67889491 -9.1875 16.1875 C-9.21263672 14.97255859 -9.23777344 13.75761719 -9.26367188 12.50585938 C-9.27333984 11.34248047 -9.28300781 10.17910156 -9.29296875 8.98046875 C-9.3086792 7.90692139 -9.32438965 6.83337402 -9.34057617 5.72729492 C-9 3 -9 3 -7.66918945 1.1574707 C-5.00854792 -0.68750538 -3.13203846 -0.52200641 0 0 Z M-10 34 C-9 37 -9 37 -9 37 Z " fill="#FEE70E" transform="translate(42,27)"/>
<path d="M0 0 C2.93447357 2.93447357 2.46158423 6.18259456 2.625 10.125 C2.66367188 10.87910156 2.70234375 11.63320313 2.7421875 12.41015625 C2.83651031 14.27303184 2.91934662 16.13648255 3 18 C3.99 17.34 4.98 16.68 6 16 C9.6875 16.375 9.6875 16.375 13 17 C14.45405168 22.40763022 15.16528002 26.43255101 14 32 C14.3577614 34.27650745 14.3577614 34.27650745 15 36 C15.66 36 16.32 36 17 36 C20.39833876 40.19794789 21.22352236 42.68016778 21 48 C16.56262288 48.08690253 12.12546366 48.14035926 7.6875 48.1875 C5.79354492 48.22520508 5.79354492 48.22520508 3.86132812 48.26367188 C2.04858398 48.27817383 2.04858398 48.27817383 0.19921875 48.29296875 C-1.47394409 48.31653442 -1.47394409 48.31653442 -3.1809082 48.34057617 C-6 48 -6 48 -7.65093994 46.74372864 C-9.32019161 44.58613609 -9.38450931 43.46604655 -9.40405273 40.75976562 C-9.41673691 39.90878296 -9.42942108 39.05780029 -9.44248962 38.18103027 C-9.43955399 37.26535278 -9.43661835 36.34967529 -9.43359375 35.40625 C-9.4388356 34.46317993 -9.44407745 33.52010986 -9.44947815 32.54846191 C-9.45590146 30.55461614 -9.45455736 28.56073248 -9.44604492 26.56689453 C-9.43753165 23.51136043 -9.46629723 20.45769321 -9.49804688 17.40234375 C-9.49965884 15.46614639 -9.49908145 13.52994572 -9.49609375 11.59375 C-9.50732773 10.67807251 -9.51856171 9.76239502 -9.53013611 8.81896973 C-9.46070956 2.52101691 -9.46070956 2.52101691 -7.13305664 -0.11132812 C-4.33012479 -1.27908272 -2.84433033 -0.97306038 0 0 Z M2 33 C2 34.32 2 35.64 2 37 C2.66 37 3.32 37 4 37 C4 35.68 4 34.36 4 33 C3.34 33 2.68 33 2 33 Z " fill="#F94B60" transform="translate(65,27)"/>
<path d="M0 0 C0.66 0 1.32 0 2 0 C2 0.66 2 1.32 2 2 C2.66 2.33 3.32 2.66 4 3 C4 3.66 4 4.32 4 5 C5.98 4.01 7.96 3.02 10 2 C8.85123314 5.44630058 7.80859085 5.91620679 5 8 C5 8.66 5 9.32 5 10 C6.32 9.67 7.64 9.34 9 9 C9 9.66 9 10.32 9 11 C8.01 11 7.02 11 6 11 C6 11.66 6 12.32 6 13 C7.98 12.67 9.96 12.34 12 12 C12 12.66 12 13.32 12 14 C10.02 14 8.04 14 6 14 C4.79371992 16.33214148 3.8345262 18.49642139 3 21 C3.33 21.99 3.66 22.98 4 24 C3.34 24 2.68 24 2 24 C1.855625 24.969375 1.71125 25.93875 1.5625 26.9375 C1 30 1 30 0 31 C-1.66617115 31.04063832 -3.33388095 31.042721 -5 31 C-8.57142857 23.71428571 -8.57142857 23.71428571 -7 19 C-8.32 19.33 -9.64 19.66 -11 20 C-10.814375 19.195625 -10.62875 18.39125 -10.4375 17.5625 C-10.293125 16.716875 -10.14875 15.87125 -10 15 C-11.06645115 13.70366379 -11.06645115 13.70366379 -13.5625 13.9375 C-14.366875 13.958125 -15.17125 13.97875 -16 14 C-15.34 13.34 -14.68 12.68 -14 12 C-13.01 12 -12.02 12 -11 12 C-11 11.01 -11 10.02 -11 9 C-11.66 8.67 -12.32 8.34 -13 8 C-13 7.34 -13 6.68 -13 6 C-12.21625 5.855625 -11.4325 5.71125 -10.625 5.5625 C-8.03578982 5.12201075 -8.03578982 5.12201075 -6 4 C-6 3.01 -6 2.02 -6 1 C-5.01 1.33 -4.02 1.66 -3 2 C-3 2.66 -3 3.32 -3 4 C-2.34 4 -1.68 4 -1 4 C-0.67 2.68 -0.34 1.36 0 0 Z " fill="#FBDC1E" transform="translate(52,2)"/>
<path d="M0 0 C2.31 0 4.62 0 7 0 C7 13.2 7 26.4 7 40 C1 41 1 41 -1 40 C-1.02464775 34.46411467 -1.04283496 28.928261 -1.05493164 23.39233398 C-1.05997244 21.5075627 -1.06680498 19.62279535 -1.07543945 17.73803711 C-1.08751617 15.03498364 -1.09323068 12.33198169 -1.09765625 9.62890625 C-1.10281754 8.78099014 -1.10797882 7.93307404 -1.11329651 7.0594635 C-1.11349195 5.03928932 -1.06206211 3.01922066 -1 1 C-0.67 0.67 -0.34 0.34 0 0 Z " fill="#3DB782" transform="translate(47,35)"/>
<path d="M0 0 C1.27875 -0.061875 2.5575 -0.12375 3.875 -0.1875 C4.95394531 -0.23970703 4.95394531 -0.23970703 6.0546875 -0.29296875 C6.69664063 -0.19628906 7.33859375 -0.09960938 8 0 C10.1879642 3.28194629 10.18876203 4.22475937 10 8 C10 8.99 10 9.98 10 11 C10.66 11.33 11.32 11.66 12 12 C11.67 14.64 11.34 17.28 11 20 C6.545 21.485 6.545 21.485 2 23 C-0.39003469 20.91835688 -1.8388558 19.44046082 -2.9375 16.4375 C-2.958125 15.633125 -2.97875 14.82875 -3 14 C-2.505 13.566875 -2.01 13.13375 -1.5 12.6875 C0.2166264 11.14490368 0.2166264 11.14490368 -0.0546875 9.14453125 C-0.26484855 7.73747741 -0.50359405 6.33433667 -0.7734375 4.9375 C-1 3 -1 3 0 0 Z " fill="#AEBDC4" transform="translate(21,44)"/>
<path d="M0 0 C2.48063781 9.41002278 2.48063781 9.41002278 1 14 C-0.98 14 -2.96 14 -5 14 C-4.67 15.98 -4.34 17.96 -4 20 C-5.65 20 -7.3 20 -9 20 C-9 18.68 -9 17.36 -9 16 C-9.66 16 -10.32 16 -11 16 C-10.91320858 13.53991222 -10.80639045 11.08356483 -10.6875 8.625 C-10.66494141 7.92632812 -10.64238281 7.22765625 -10.61914062 6.5078125 C-10.51171875 4.4765625 -10.51171875 4.4765625 -10 1 C-6.1496895 -1.56687367 -4.41430237 -0.83288724 0 0 Z " fill="#BD9892" transform="translate(78,44)"/>
<path d="M0 0 C1.27875 -0.061875 2.5575 -0.12375 3.875 -0.1875 C4.95394531 -0.23970703 4.95394531 -0.23970703 6.0546875 -0.29296875 C6.69664063 -0.19628906 7.33859375 -0.09960938 8 0 C10.1879642 3.28194629 10.18876203 4.22475937 10 8 C10 8.99 10 9.98 10 11 C10 11.33 10 11.66 10 12 C6.7 12 3.4 12 0 12 C-1.125 3.375 -1.125 3.375 0 0 Z " fill="#E29460" transform="translate(21,44)"/>
<path d="M0 0 C3.3 0 6.6 0 10 0 C10.33 0.99 10.66 1.98 11 3 C10.34 3 9.68 3 9 3 C8.855625 3.969375 8.71125 4.93875 8.5625 5.9375 C8 9 8 9 7 10 C5.33382885 10.04063832 3.66611905 10.042721 2 10 C-1.125 3.375 -1.125 3.375 0 0 Z " fill="#97B8C8" transform="translate(45,23)"/>
<path d="M0 0 C1.670625 0.37125 1.670625 0.37125 3.375 0.75 C4.8533226 3.70664519 4.43532783 6.49229737 4.375 9.75 C3.385 9.75 2.395 9.75 1.375 9.75 C1.375 8.1 1.375 6.45 1.375 4.75 C0.715 4.75 0.055 4.75 -0.625 4.75 C-1.945 4.75 -3.265 4.75 -4.625 4.75 C-4.625 5.41 -4.625 6.07 -4.625 6.75 C-5.285 6.75 -5.945 6.75 -6.625 6.75 C-6.8125 4.375 -6.8125 4.375 -6.625 1.75 C-3.625 -0.25 -3.625 -0.25 0 0 Z " fill="#613D1F" transform="translate(74.625,43.25)"/>
<path d="M0 0 C2.64 0 5.28 0 8 0 C8.33 1.65 8.66 3.3 9 5 C8.21625 4.95875 7.4325 4.9175 6.625 4.875 C3.83883881 4.71271266 3.83883881 4.71271266 2 7 C1.01 6.67 0.02 6.34 -1 6 C-0.67 4.02 -0.34 2.04 0 0 Z " fill="#504B44" transform="translate(21,44)"/>
<path d="M0 0 C2.64 0 5.28 0 8 0 C7.67 0.99 7.34 1.98 7 3 C5.02 3 3.04 3 1 3 C1.33 4.98 1.66 6.96 2 9 C0.35 9 -1.3 9 -3 9 C-2.30058404 5.85262818 -1.23921302 2.97411124 0 0 Z " fill="#726693" transform="translate(72,55)"/>
<path d="M0 0 C3.63 0 7.26 0 11 0 C11 0.99 11 1.98 11 3 C5.68348624 4.6559633 5.68348624 4.6559633 3 5 C1 3.75 1 3.75 0 2 C0 1.34 0 0.68 0 0 Z " fill="#725B44" transform="translate(20,62)"/>
<path d="M0 0 C1.65 0 3.3 0 5 0 C5.66 1.65 6.32 3.3 7 5 C7.66 5 8.32 5 9 5 C9 5.66 9 6.32 9 7 C7.35 7 5.7 7 4 7 C4.33 6.01 4.66 5.02 5 4 C3.68 4.33 2.36 4.66 1 5 C0.67 3.35 0.34 1.7 0 0 Z " fill="#DE8982" transform="translate(73,58)"/>
<path d="M0 0 C0.598125 0.20625 1.19625 0.4125 1.8125 0.625 C0.8225 1.12 0.8225 1.12 -0.1875 1.625 C-0.5175 2.45 -0.8475 3.275 -1.1875 4.125 C-2.1875 6.625 -2.1875 6.625 -4.1875 7.625 C-4.8475 7.295 -5.5075 6.965 -6.1875 6.625 C-5.875 4.25 -5.875 4.25 -5.1875 1.625 C-2.1875 -0.375 -2.1875 -0.375 0 0 Z " fill="#EA9D95" transform="translate(73.1875,53.375)"/>
<path d="M0 0 C1.98 0.66 3.96 1.32 6 2 C5.67 3.32 5.34 4.64 5 6 C3.35 6.33 1.7 6.66 0 7 C-1.125 2.25 -1.125 2.25 0 0 Z " fill="#A3B2B6" transform="translate(19,56)"/>
<path d="M0 0 C0.66 0 1.32 0 2 0 C2 0.66 2 1.32 2 2 C2.66 2.33 3.32 2.66 4 3 C2 5 2 5 0.0546875 5.1953125 C-1.96354167 5.13020833 -3.98177083 5.06510417 -6 5 C-6 3.68 -6 2.36 -6 1 C-5.01 1.33 -4.02 1.66 -3 2 C-3 2.66 -3 3.32 -3 4 C-2.34 4 -1.68 4 -1 4 C-0.67 2.68 -0.34 1.36 0 0 Z " fill="#F5C65A" transform="translate(52,2)"/>
<path d="M0 0 C1.32 0.33 2.64 0.66 4 1 C3.67 2.65 3.34 4.3 3 6 C3.66 6.33 4.32 6.66 5 7 C3.68 7 2.36 7 1 7 C0.67 4.69 0.34 2.38 0 0 Z " fill="#FEE401" transform="translate(48,16)"/>
<path d="M0 0 C-0.33 0.66 -0.66 1.32 -1 2 C-1.9590625 2.2165625 -1.9590625 2.2165625 -2.9375 2.4375 C-5.38210855 2.86165035 -5.38210855 2.86165035 -7 6 C-7 4.02 -7 2.04 -7 0 C-4.3333581 -1.33332095 -2.83319697 -0.67102033 0 0 Z " fill="#F7C724" transform="translate(54,14)"/>
<path d="M0 0 C0.99 0.33 1.98 0.66 3 1 C2.34 1 1.68 1 1 1 C1.33 2.32 1.66 3.64 2 5 C0.02 5.99 0.02 5.99 -2 7 C-2 5.35 -2 3.7 -2 2 C-1.34 2 -0.68 2 0 2 C0 1.34 0 0.68 0 0 Z " fill="#B57E5E" transform="translate(70,48)"/>
<path d="M0 0 C0.66 0.66 1.32 1.32 2 2 C1.625 4.125 1.625 4.125 1 6 C0.01 6 -0.98 6 -2 6 C-2 5.34 -2 4.68 -2 4 C-2.66 3.67 -3.32 3.34 -4 3 C-2.68 2.01 -1.36 1.02 0 0 Z " fill="#E2B196" transform="translate(75,46)"/>
<path d="M0 0 C1.98 0.99 1.98 0.99 4 2 C4 2.66 4 3.32 4 4 C2.68 3.34 1.36 2.68 0 2 C0 1.34 0 0.68 0 0 Z " fill="#F2AF5B" transform="translate(41,2)"/>
<path d="M0 0 C3 1 3 1 3 1 Z " fill="#F0AF62" transform="translate(56,20)"/>
</svg>
